<svg xmlns="http://www.w3.org/2000/svg" width="820" height="280" viewBox="0 0 820 280" role="img" aria-label="Subversa logo">
    
    <defs>
      <linearGradient id="bg-line01" x1="0" y1="0" x2="1" y2="1">
        <stop offset="0" stop-color="#020617"/>
        <stop offset="0.50" stop-color="#0B1020"/>
        <stop offset="1" stop-color="#24114F"/>
      </linearGradient>
      <linearGradient id="route-line01" x1="58" y1="210" x2="205" y2="50" gradientUnits="userSpaceOnUse">
        <stop offset="0" stop-color="#22C55E"/>
        <stop offset="0.50" stop-color="#38BDF8"/>
        <stop offset="1" stop-color="#8B5CF6"/>
      </linearGradient>
      <linearGradient id="route2-line01" x1="48" y1="48" x2="208" y2="208" gradientUnits="userSpaceOnUse">
        <stop offset="0" stop-color="#86EFAC"/>
        <stop offset="0.55" stop-color="#38BDF8"/>
        <stop offset="1" stop-color="#A78BFA"/>
      </linearGradient>
      <filter id="soft-shadow-line01" x="-30%" y="-30%" width="160%" height="160%">
        <feDropShadow dx="0" dy="16" stdDeviation="18" flood-color="#020617" flood-opacity="0.30"/>
      </filter>
      <filter id="glow-line01" x="-40%" y="-40%" width="180%" height="180%">
        <feDropShadow dx="0" dy="0" stdDeviation="7" flood-color="#38BDF8" flood-opacity="0.25"/>
      </filter>
    </defs>
    
    <rect width="100%" height="100%" fill="#0B1020"/>
    
    <g transform="translate(44,52) scale(0.6875)" filter="none">
      
      <g filter="url(#glow-line01)" stroke-linecap="round" stroke-linejoin="round">
        <path d="M128 58 L128 198" fill="none" stroke="#22C55E" stroke-width="18"/>
        <path d="M128 91 L84 135 L84 166" fill="none" stroke="#38BDF8" stroke-width="18"/>
        <path d="M128 163 L176 115 L176 88" fill="none" stroke="#8B5CF6" stroke-width="18"/>
      </g>
      <g>
        <circle cx="128" cy="46" r="25" fill="#86EFAC"/>
        <circle cx="128" cy="46" r="11" fill="#0B1020"/>
        <circle cx="128" cy="210" r="25" fill="#22C55E"/>
        <circle cx="128" cy="210" r="11" fill="#0B1020"/>
        <circle cx="84" cy="178" r="25" fill="#67E8F9"/>
        <circle cx="84" cy="178" r="11" fill="#0B1020"/>
        <circle cx="176" cy="76" r="25" fill="#A78BFA"/>
        <circle cx="176" cy="76" r="11" fill="#0B1020"/>
      </g>
    </g>
    
    <g transform="translate(254,110)">
      <text x="0" y="0" dominant-baseline="central" font-family="Inter, Arial, sans-serif" font-size="66" font-weight="800" letter-spacing="-2.8" fill="#F8FAFC">Subversa</text>
      <text x="3" y="54" font-family="Inter, Arial, sans-serif" font-size="20" font-weight="600" letter-spacing="0.7" fill="#CBD5E1">cliente SVN moderno</text>
    </g>
    
    </svg>